# Blender 4.1.1
# www.blender.org
g Cube_Cube.004
v 0.330663 -0.499980 -0.500000
v 0.330663 0.499980 -0.500000
v 0.330663 -0.499980 0.500000
v 0.330663 0.499980 0.500000
v -0.330663 -0.499980 -0.500000
v -0.330663 0.499980 -0.500000
v -0.330663 -0.499980 0.500000
v -0.330663 0.499980 0.500000
v 0.330663 -0.102834 -0.145765
v 0.330663 0.057074 -0.145765
v 0.330663 0.057074 0.145765
v 0.330663 -0.102834 0.145765
v -0.330663 -0.102834 0.145765
v -0.330663 0.057074 0.145765
v -0.330663 -0.102834 -0.145765
v -0.330663 0.057074 -0.145765
v -0.330663 0.183393 -0.047739
v 0.330663 0.183393 -0.047739
v -0.330663 0.183393 -0.143233
v 0.330663 0.183393 -0.143233
v -0.330663 0.328142 -0.047739
v 0.330663 0.328142 -0.047739
v -0.330663 0.183393 0.143118
v 0.330663 0.183393 0.143118
v -0.330663 0.183393 0.047739
v 0.330663 0.183393 0.047739
v -0.330663 0.328142 0.047739
v 0.330663 0.328142 0.047739
v -0.330663 0.328142 -0.047723
v 0.330663 0.328142 -0.047723
v -0.330663 0.328142 0.000000
v 0.330663 0.328142 0.000000
v -0.330663 0.328142 0.047838
v 0.330663 0.328142 0.047838
v -0.330663 0.183393 0.000000
v 0.330663 0.183393 0.000000
v -0.293265 0.191579 -0.042340
v -0.293265 0.191579 -0.000000
v -0.293265 0.191579 -0.127034
v 0.293265 0.191579 -0.127034
v 0.293265 0.191579 -0.042340
v -0.293265 0.191579 0.042340
v -0.293265 0.191579 0.126931
v 0.293265 0.191579 0.042340
v 0.293265 0.191579 0.126931
v -0.293265 0.319957 0.042340
v -0.293265 0.319957 -0.000000
v -0.293265 0.319957 -0.042340
v -0.293265 0.319957 0.042428
v 0.293265 0.319957 0.042428
v 0.293265 0.319957 -0.042340
v 0.293265 0.319957 -0.000000
v 0.293265 0.191579 -0.000000
v -0.293265 0.319957 -0.042325
v 0.293265 0.319957 -0.042325
v 0.293265 0.319957 0.042340
v 0.330663 -0.102834 -0.145765
v 0.330663 0.057074 -0.145765
v 0.330663 0.057074 0.145765
v -0.330663 -0.102834 0.145765
v -0.330663 0.057074 0.145765
v -0.330663 -0.102834 -0.145765
v -0.330663 0.057074 -0.145765
v 0.330663 -0.102834 0.145765
v 0.296017 -0.094457 -0.130492
v 0.296017 0.048697 -0.130492
v 0.296017 0.048697 0.130492
v -0.296017 -0.094457 0.130492
v -0.296017 0.048697 0.130492
v -0.296017 -0.094457 -0.130492
v -0.296017 0.048697 -0.130492
v 0.296017 -0.094457 0.130492
v -0.359225 -0.499980 0.500000
v -0.359225 -0.102834 0.145765
v -0.359225 0.057074 0.145765
v -0.359225 -0.499980 -0.500000
v -0.359225 -0.102834 -0.145765
v -0.359225 0.057074 -0.145765
v -0.359225 0.183393 -0.047739
v -0.359225 0.183393 0.000000
v -0.359225 0.183393 -0.143233
v -0.359225 0.183393 0.047739
v -0.359225 0.183393 0.143118
v -0.359225 0.499980 0.500000
v -0.359225 0.499980 -0.500000
v 0.437707 -0.102857 0.145765
v 0.352332 -0.102834 -0.145765
v 0.352332 0.057074 -0.145765
v 0.352332 0.057074 0.145765
v 0.437707 -0.500004 0.500000
v 0.352332 -0.102834 0.145765
v 0.352332 0.183393 -0.143233
v 0.352332 0.183393 -0.047739
v 0.352332 0.183393 0.047739
v 0.352332 0.183393 0.143118
v 0.352332 0.183393 0.000000
v 0.437707 -0.102857 -0.145765
v 0.437707 -0.500004 -0.500000
v -0.330663 -0.499980 -0.500000
v -0.330663 0.499980 -0.500000
v -0.330663 0.057074 -0.145765
v -0.359225 -0.499980 0.500000
v -0.359225 -0.102834 0.145765
v -0.359225 0.057074 0.145765
v -0.359225 -0.499980 -0.500000
v -0.359225 -0.102834 -0.145765
v -0.359225 0.057074 -0.145765
v -0.359225 0.183393 -0.047739
v -0.359225 0.183393 0.000000
v -0.359225 0.183393 -0.143233
v -0.359225 0.183393 0.047739
v -0.359225 0.183393 0.143118
v -0.359225 0.499980 0.500000
v -0.359225 0.499980 -0.500000
v -0.330663 0.499980 -0.500000
v -0.330663 0.057074 -0.145765
v -0.359225 0.499980 -0.500000
v -0.359225 0.057074 -0.145765
v -0.359225 0.057074 0.145765
v -0.359225 0.057074 -0.145765
v -0.359225 0.183393 -0.047739
v -0.359225 0.183393 0.000000
v -0.359225 0.183393 -0.143233
v -0.359225 0.183393 0.047739
v -0.359225 0.183393 0.143118
v -0.359225 0.499980 0.500000
v -0.359225 0.499980 -0.500000
v -0.330663 0.499980 -0.500000
v -0.330663 0.057074 -0.145765
v -0.359225 0.499980 -0.500000
v -0.359225 0.057074 -0.145765
v -0.359225 0.057074 0.145765
v -0.359225 0.057074 -0.145765
v -0.359225 0.183393 -0.047739
v -0.359225 0.183393 0.000000
v -0.359225 0.183393 -0.143233
v -0.359225 0.183393 0.047739
v -0.359225 0.183393 0.143118
v -0.359225 0.499980 0.500000
v -0.359225 0.499980 -0.500000
v -0.330663 -0.499980 0.500000
v -0.330663 -0.102834 0.145765
v -0.330663 -0.499980 -0.500000
v -0.330663 -0.102834 -0.145765
v -0.330663 0.183393 0.143118
v -0.330663 0.499980 0.500000
v -0.330663 0.183393 -0.143233
v -0.330663 0.499980 -0.500000
v -0.330663 0.057074 -0.145765
v -0.330663 0.057074 0.145765
v -0.359225 -0.499980 0.500000
v -0.359225 -0.102834 0.145765
v -0.359225 -0.499980 -0.500000
v -0.359225 -0.102834 -0.145765
v -0.359225 0.183393 0.143118
v -0.359225 0.499980 0.500000
v -0.359225 0.183393 -0.143233
v -0.359225 0.499980 -0.500000
v -0.359225 0.057074 -0.145765
v -0.359225 0.057074 0.145765
v -0.359225 -0.499980 0.500000
v -0.359225 -0.102834 0.145765
v -0.359225 0.057074 0.145765
v -0.359225 -0.499980 -0.500000
v -0.359225 -0.102834 -0.145765
v -0.359225 0.057074 -0.145765
v -0.330663 0.499980 -0.500000
v -0.330663 0.057074 -0.145765
v -0.359225 0.499980 -0.500000
v -0.359225 0.057074 -0.145765
v -0.359225 0.057074 0.145765
v -0.359225 0.057074 -0.145765
v -0.359225 0.183393 -0.047739
v -0.359225 0.183393 0.000000
v -0.359225 0.183393 -0.143233
v -0.359225 0.183393 0.047739
v -0.359225 0.183393 0.143118
v -0.359225 0.499980 0.500000
v -0.359225 0.499980 -0.500000
v -0.512062 -0.500020 0.500000
v -0.512062 -0.102873 0.145765
v -0.512062 -0.500020 -0.499999
v -0.512062 -0.102873 -0.145765
v -0.512062 0.183354 0.143118
v -0.512062 0.499941 0.500000
v -0.512062 0.183354 -0.143233
v -0.512062 0.499941 -0.499999
v -0.512062 0.057035 -0.145765
v -0.512062 0.057035 0.145765
v -0.540624 -0.500020 0.500000
v -0.540624 -0.102873 0.145765
v -0.540624 -0.500020 -0.499999
v -0.540624 -0.102873 -0.145765
v -0.540624 0.183354 0.143118
v -0.540624 0.499941 0.500000
v -0.540624 0.183354 -0.143233
v -0.540624 0.499941 -0.499999
v -0.540624 0.057035 -0.145765
v -0.540624 0.057035 0.145765
v -0.540624 -0.500020 0.500000
v -0.540624 -0.102873 0.145765
v -0.540624 0.057035 0.145765
v -0.540624 -0.500020 -0.499999
v -0.540624 -0.102873 -0.145765
v -0.540624 0.057035 -0.145765
v -0.512062 0.499941 -0.499999
v -0.512062 0.057035 -0.145765
v -0.540624 0.499941 -0.499999
v -0.540624 0.057035 -0.145765
v -0.540624 0.057035 0.145765
v -0.540624 0.057035 -0.145765
v -0.540624 0.183354 -0.047739
v -0.540624 0.183354 0.000000
v -0.540624 0.183354 -0.143233
v -0.540624 0.183354 0.047739
v -0.540624 0.183354 0.143118
v -0.540624 0.499941 0.500000
v -0.540624 0.499941 -0.499999
v 0.330663 -0.499980 -0.500000
v 0.330663 -0.102834 -0.145765
v 0.330663 -0.499980 0.500000
v 0.330663 -0.102834 0.145765
v 0.330663 0.183393 -0.143233
v 0.330663 0.499980 -0.500000
v 0.330663 0.183393 0.143118
v 0.330663 0.499980 0.500000
v 0.330663 0.057074 0.145765
v 0.330663 0.057074 -0.145765
v 0.352332 -0.102834 -0.145765
v 0.352332 0.057074 -0.145765
v 0.352332 0.057074 0.145765
v 0.352332 -0.102834 0.145765
v 0.352332 0.183393 -0.143233
v 0.352332 0.183393 -0.047739
v 0.352332 0.183393 0.047739
v 0.352332 0.183393 0.143118
v 0.352332 0.183393 0.000000
v 0.437707 0.183370 -0.143233
v 0.437707 0.499957 -0.500000
v 0.437707 0.183370 0.143118
v 0.437707 0.499957 0.500000
v 0.437707 0.057051 0.145765
v 0.437707 0.057051 -0.145765
v 0.459376 -0.500004 -0.500000
v 0.459376 -0.102857 -0.145765
v 0.459376 0.057051 -0.145765
v 0.459376 0.057051 0.145765
v 0.459376 -0.500004 0.500000
v 0.459376 -0.102857 0.145765
v 0.459376 0.183370 -0.143233
v 0.459376 0.183370 -0.047739
v 0.459376 0.183370 0.047739
v 0.459376 0.183370 0.143118
v 0.459376 0.183370 0.000000
v 0.459376 0.499957 -0.500000
v 0.459376 0.499957 0.500000
vn -0.0000 1.0000 -0.0000
vn 1.0000 -0.0000 -0.0000
vn -0.0000 -0.0000 1.0000
vn -1.0000 -0.0000 -0.0000
vn -0.0000 -0.0000 -1.0000
vn -0.0000 -1.0000 -0.0000
vn -0.0000 0.5514 -0.8342
vn -0.2138 -0.9769 -0.0000
vn -0.2343 -0.5354 0.8114
vn -0.2138 0.9769 -0.0000
vn -0.0000 0.5505 0.8348
vn 0.2138 0.9769 -0.0000
vn -0.0000 -0.5506 0.8348
vn -0.0000 -0.5498 -0.8353
vn -0.0000 -0.5507 0.8347
vn 0.2343 -0.5354 0.8114
vn 0.2138 -0.9769 -0.0000
vn -0.2345 -0.5345 -0.8120
vn 0.2345 -0.5345 -0.8120
vn -0.0000 -0.5506 -0.8348
vn -0.2350 0.9720 -0.0000
vn 0.4034 -0.0000 -0.9150
vn 0.4034 -0.0000 0.9150
vn 0.2350 0.9720 -0.0000
vn -0.4034 -0.0000 0.9150
vn 0.2350 -0.9720 -0.0000
vn -0.2350 -0.9720 -0.0000
vn -0.4034 -0.0000 -0.9150
vn 0.0001 -0.6246 0.7809
vn -0.0001 0.5366 -0.8438
vn 0.0001 -0.6656 0.7463
vn 0.0001 -0.6246 -0.7809
vn -0.0000 0.0108 0.9999
vn 0.0001 -0.6656 -0.7463
vn -0.0002 0.7480 0.6637
vn -0.0001 0.6246 -0.7809
vn -0.0002 0.7481 -0.6636
vn -0.0000 0.7480 0.6637
vn -0.0000 0.7481 -0.6636
vn -0.0000 0.5366 -0.8438
vn -0.0000 -0.6656 -0.7463
vn -0.0000 0.5366 0.8438
vn -0.0000 -0.6656 0.7463
vn -0.0000 -0.6246 0.7809
vn -0.0000 -0.6246 -0.7809
vn -0.0001 0.5366 0.8438
vn -0.0000 -0.0104 -0.9999
vn -0.0001 0.6246 0.7809
vn -0.0000 0.0104 0.9999
vn -0.0000 -0.0108 -0.9999
vn -0.0001 0.6656 0.7463
vn 0.0002 -1.0000 -0.0000
vn -0.0001 0.6656 -0.7463
vn -0.0002 1.0000 -0.0000
vn -0.0000 -0.0096 -1.0000
vn 0.0002 -0.7481 0.6636
vn 0.0002 -0.7480 -0.6637
vn 0.0001 -0.5366 0.8438
vn 0.0001 -0.5366 -0.8438
vn 0.0002 0.7480 0.6637
vn 0.0002 1.0000 -0.0000
vn -0.0001 -0.6656 -0.7463
vn -0.0001 -0.6656 0.7463
vn -0.0001 -0.6246 -0.7809
vn -0.0000 0.0116 0.9999
vn -0.0001 -0.6246 0.7809
vn -0.0000 -0.0121 -0.9999
vn -0.0002 -1.0000 -0.0000
vn -0.0000 -0.0130 -0.9999
vn 0.0002 0.7481 -0.6636
vn 0.0001 0.5366 0.8438
vn -0.0000 0.0098 1.0000
vn 0.0001 0.5366 -0.8438
vt 0.545850 0.113065
vt 0.545850 0.125000
vt 0.375000 0.250000
vt 0.375000 0.000000
vt 0.474290 0.088559
vt 0.474290 0.161441
vt 0.625000 0.250000
vt 0.625000 0.500000
vt 0.375000 0.500000
vt 0.474290 0.588559
vt 0.474290 0.661441
vt 0.375000 0.750000
vt 0.625000 0.750000
vt 0.625000 1.000000
vt 0.375000 1.000000
vt 0.125000 0.500000
vt 0.125000 0.750000
vt 0.875000 0.500000
vt 0.875000 0.750000
vt 0.514269 0.588559
vt 0.514269 0.161441
vt 0.514269 0.661441
vt 0.667052 0.500000
vt 0.832948 0.500000
vt 0.667052 0.562500
vt 0.832948 0.562500
vt 0.582039 0.625000
vt 0.582039 0.636935
vt 0.582039 0.636931
vt 0.545850 0.660808
vt 0.545850 0.636935
vt 0.545850 0.625000
vt 0.545850 0.160780
vt 0.582039 0.136960
vt 0.582039 0.136935
vt 0.582039 0.125000
vt 0.582039 0.113065
vt 0.582039 0.113069
vt 0.545850 0.089192
vt 0.625000 0.000000
vt 0.667052 0.750000
vt 0.832948 0.750000
vt 0.832948 0.687500
vt 0.667052 0.687500
vt 0.582039 0.613065
vt 0.582039 0.613040
vt 0.545850 0.589221
vt 0.167052 0.625000
vt 0.332948 0.625000
vt 0.332948 0.562500
vt 0.167052 0.562500
vt 0.167052 0.687500
vt 0.332948 0.687500
vt 0.375000 0.292052
vt 0.375000 0.457948
vt 0.625000 0.457948
vt 0.625000 0.292052
vt 0.832948 0.625000
vt 0.667052 0.625000
vt 0.332948 0.500000
vt 0.167052 0.500000
vt 0.375000 0.792052
vt 0.375000 0.957948
vt 0.625000 0.957948
vt 0.625000 0.792052
vt 0.167052 0.750000
vt 0.332948 0.750000
vt 0.545850 0.136935
vt 0.545850 0.613065
vt 0.514269 0.088559
vt 0.625000 0.442856
vt 0.375000 0.442856
vt 0.375000 0.307144
vt 0.625000 0.307144
vt 0.375000 0.942856
vt 0.375000 0.807144
vt 0.625000 0.807144
vt 0.625000 0.942856
vt 0.182144 0.500000
vt 0.317856 0.500000
vt 0.317856 0.750000
vt 0.182144 0.750000
vt 0.817856 0.750000
vt 0.682144 0.750000
vt 0.682144 0.500000
vt 0.817856 0.500000
s 0
f 93/1/1 96/2/1 237/2/1 234/1/1
f 3/3/2 1/4/2 9/5/2 12/6/2
f 3/3/3 4/7/3 8/8/3 7/9/3
f 74/10/1 13/10/1 142/10/1 152/10/1
f 15/11/4 5/12/4 7/9/4 13/10/4
f 5/12/5 6/13/5 2/14/5 1/15/5
f 3/16/6 7/9/6 5/12/6 1/17/6
f 8/8/1 4/18/1 2/19/1 6/13/1
f 13/10/1 14/20/1 61/20/1 60/10/1
f 11/21/1 12/6/1 64/6/1 59/21/1
f 16/22/1 15/11/1 62/11/1 63/22/1
f 12/6/1 9/5/1 57/5/1 64/6/1
f 33/23/7 34/24/7 50/24/7 49/23/7
f 27/25/6 28/26/6 34/24/6 33/23/6
f 31/27/8 21/28/8 48/28/8 47/27/8
f 29/29/9 19/30/9 39/30/9 54/29/9
f 17/31/10 35/32/10 38/32/10 37/31/10
f 4/7/2 24/33/2 34/34/2 28/35/2 32/36/2 22/37/2 30/38/2 20/39/2 2/40/2
f 29/41/1 30/42/1 22/43/1 21/44/1
f 30/42/11 29/41/11 54/41/11 55/42/11
f 36/2/12 18/1/12 41/1/12 53/2/12
f 6/13/4 19/30/4 29/29/4 21/28/4 31/27/4 27/45/4 33/46/4 23/47/4 8/8/4
f 27/45/8 31/27/8 47/27/8 46/45/8
f 28/26/13 27/25/13 46/25/13 56/26/13
f 53/48/1 38/49/1 42/50/1 44/51/1
f 41/52/1 37/53/1 38/49/1 53/48/1
f 45/54/14 43/55/14 49/56/14 50/57/14
f 48/44/6 51/43/6 52/58/6 47/59/6
f 47/59/6 52/58/6 56/26/6 46/25/6
f 44/51/1 42/50/1 43/60/1 45/61/1
f 39/62/15 40/63/15 55/64/15 54/65/15
f 40/66/1 39/67/1 37/53/1 41/52/1
f 19/30/10 17/31/10 37/31/10 39/30/10
f 20/39/16 30/38/16 55/38/16 40/39/16
f 18/1/12 20/39/12 40/39/12 41/1/12
f 32/36/17 28/35/17 56/35/17 52/36/17
f 23/47/18 33/46/18 49/46/18 43/47/18
f 26/68/12 36/2/12 53/2/12 44/68/12
f 34/34/19 24/33/19 45/33/19 50/34/19
f 25/69/10 23/47/10 43/47/10 42/69/10
f 35/32/10 25/69/10 42/69/10 38/32/10
f 22/37/17 32/36/17 52/36/17 51/37/17
f 21/44/20 22/43/20 51/43/20 48/44/20
f 24/33/12 26/68/12 44/68/12 45/33/12
f 62/11/21 60/10/21 68/10/21 70/11/21
f 59/21/22 64/6/22 72/6/22 67/21/22
f 57/5/23 58/70/23 66/70/23 65/5/23
f 64/6/24 57/5/24 65/5/24 72/6/24
f 15/11/1 13/10/1 60/10/1 62/11/1
f 9/5/1 10/70/1 58/70/1 57/5/1
f 14/20/1 16/22/1 63/22/1 61/20/1
f 10/70/1 11/21/1 59/21/1 58/70/1
f 67/71/5 72/72/5 68/73/5 69/74/5
f 70/75/3 65/76/3 66/77/3 71/78/3
f 68/79/1 72/80/1 65/81/1 70/82/1
f 71/83/6 66/84/6 67/85/6 69/86/6
f 63/22/25 62/11/25 70/11/25 71/22/25
f 58/70/26 59/21/26 67/21/26 66/70/26
f 61/20/27 63/22/27 71/22/27 69/20/27
f 60/10/28 61/20/28 69/20/28 68/10/28
f 78/22/1 75/20/1 104/20/1 107/22/1
f 10/70/1 2/40/1 224/40/1 228/70/1
f 10/70/2 1/4/2 2/40/2
f 16/22/6 14/20/6 75/20/6 78/22/6
f 14/20/4 7/9/4 8/8/4
f 16/22/1 6/13/1 100/13/1 101/22/1
f 104/20/1 103/10/1 162/10/1 163/20/1
f 78/22/1 76/12/1 105/12/1 107/22/1
f 77/11/1 78/22/1 107/22/1 106/11/1
f 23/47/1 25/69/1 82/69/1 83/47/1
f 25/69/1 35/32/1 80/32/1 82/69/1
f 76/12/1 78/22/1 159/22/1 153/12/1
f 128/13/1 129/22/1 168/22/1 167/13/1
f 7/9/1 14/20/1 150/20/1 141/9/1
f 14/20/5 13/10/5 74/10/5 75/20/5
f 16/22/1 78/22/1 118/22/1 116/22/1
f 103/10/1 102/9/1 161/9/1 162/10/1
f 85/13/1 81/30/1 157/30/1 158/13/1
f 35/32/1 17/31/1 79/31/1 80/32/1
f 15/11/3 16/22/3 78/22/3 77/11/3
f 17/31/1 19/30/1 81/30/1 79/31/1
f 2/40/1 20/39/1 223/39/1 224/40/1
f 11/21/2 4/7/2 3/3/2
f 95/33/1 24/33/1 225/33/1 236/33/1
f 94/68/1 95/33/1 236/33/1 235/68/1
f 4/7/1 11/21/1 227/21/1 226/7/1
f 92/39/1 93/1/1 234/1/1 233/39/1
f 20/39/1 18/1/1 93/1/1 92/39/1
f 10/70/3 9/5/3 87/5/3 88/70/3
f 87/5/1 9/5/1 220/5/1 229/5/1
f 12/6/5 11/21/5 89/21/5 91/6/5
f 11/21/6 10/70/6 88/70/6 89/21/6
f 36/2/1 26/68/1 94/68/1 96/2/1
f 91/6/1 89/21/1 231/21/1 232/6/1
f 3/3/1 12/6/1 222/6/1 221/3/1
f 26/68/1 24/33/1 95/33/1 94/68/1
f 18/1/1 36/2/1 96/2/1 93/1/1
f 12/6/1 91/6/1 232/6/1 222/6/1
f 101/22/4 100/13/4 99/12/4
f 5/12/1 16/22/1 101/22/1 99/12/1
f 6/13/1 5/12/1 99/12/1 100/13/1
f 16/22/1 5/12/1 143/12/1 149/22/1
f 132/20/1 139/8/1 178/8/1 171/20/1
f 114/13/1 107/22/1 120/22/1 127/13/1
f 73/9/1 75/20/1 104/20/1 102/9/1
f 80/32/1 79/31/1 108/31/1 109/32/1
f 85/13/1 78/22/1 107/22/1 114/13/1
f 79/31/1 81/30/1 110/30/1 108/31/1
f 75/20/1 84/8/1 113/8/1 104/20/1
f 83/47/1 82/69/1 111/69/1 112/47/1
f 74/10/1 73/9/1 102/9/1 103/10/1
f 82/69/1 80/32/1 109/32/1 111/69/1
f 75/20/1 74/10/1 103/10/1 104/20/1
f 84/8/1 83/47/1 112/47/1 113/8/1
f 76/12/1 77/11/1 106/11/1 105/12/1
f 81/30/1 85/13/1 114/13/1 110/30/1
f 115/13/1 116/22/1 129/22/1 128/13/1
f 125/47/1 124/69/1 137/69/1 138/47/1
f 108/31/1 110/30/1 123/30/1 121/31/1
f 104/20/1 113/8/1 126/8/1 119/20/1
f 85/13/1 6/13/1 115/13/1 117/13/1
f 112/47/1 111/69/1 124/69/1 125/47/1
f 6/13/1 16/22/1 116/22/1 115/13/1
f 111/69/1 109/32/1 122/32/1 124/69/1
f 78/22/1 85/13/1 117/13/1 118/22/1
f 113/8/1 112/47/1 125/47/1 126/8/1
f 110/30/1 114/13/1 127/13/1 123/30/1
f 107/22/1 104/20/1 119/20/1 120/22/1
f 109/32/1 108/31/1 121/31/1 122/32/1
f 83/47/1 84/8/1 156/8/1 155/47/1
f 102/9/1 104/20/1 163/20/1 161/9/1
f 124/69/1 122/32/1 135/32/1 137/69/1
f 118/22/1 117/13/1 130/13/1 131/22/1
f 126/8/1 125/47/1 138/47/1 139/8/1
f 116/22/1 118/22/1 131/22/1 129/22/1
f 123/30/1 127/13/1 140/13/1 136/30/1
f 117/13/1 115/13/1 128/13/1 130/13/1
f 127/13/1 120/22/1 133/22/1 140/13/1
f 120/22/1 119/20/1 132/20/1 133/22/1
f 119/20/1 126/8/1 139/8/1 132/20/1
f 122/32/1 121/31/1 134/31/1 135/32/1
f 121/31/1 123/30/1 136/30/1 134/31/1
f 171/20/29 178/8/29 217/8/29 210/20/29
f 166/22/30 164/12/30 203/12/30 205/22/30
f 143/12/31 144/11/31 183/11/31 182/12/31
f 179/13/32 172/22/32 211/22/32 218/13/32
f 145/47/33 155/47/33 194/47/33 184/47/33
f 165/11/3 166/22/3 205/22/3 204/11/3
f 142/10/34 141/9/34 180/9/34 181/10/34
f 175/30/35 179/13/35 218/13/35 214/30/35
f 156/8/36 160/20/36 199/20/36 195/8/36
f 164/12/31 165/11/31 204/11/31 203/12/31
f 178/8/37 177/47/37 216/47/37 217/8/37
f 131/22/1 130/13/1 169/13/1 170/22/1
f 75/20/1 73/9/1 151/9/1 160/20/1
f 105/12/1 106/11/1 165/11/1 164/12/1
f 14/20/1 8/8/1 146/8/1 150/20/1
f 15/11/1 77/11/1 154/11/1 144/11/1
f 129/22/1 131/22/1 170/22/1 168/22/1
f 106/11/1 107/22/1 166/22/1 165/11/1
f 73/9/1 74/10/1 152/10/1 151/9/1
f 130/13/1 128/13/1 167/13/1 169/13/1
f 8/8/1 23/47/1 145/47/1 146/8/1
f 84/8/1 75/20/1 160/20/1 156/8/1
f 133/22/1 132/20/1 171/20/1 172/22/1
f 19/30/1 6/13/1 148/13/1 147/30/1
f 23/47/1 83/47/1 155/47/1 145/47/1
f 77/11/1 76/12/1 153/12/1 154/11/1
f 135/32/1 134/31/1 173/31/1 174/32/1
f 134/31/1 136/30/1 175/30/1 173/31/1
f 138/47/1 137/69/1 176/69/1 177/47/1
f 78/22/1 16/22/1 149/22/1 159/22/1
f 13/10/1 7/9/1 141/9/1 142/10/1
f 137/69/1 135/32/1 174/32/1 176/69/1
f 6/13/1 85/13/1 158/13/1 148/13/1
f 139/8/1 138/47/1 177/47/1 178/8/1
f 81/30/1 19/30/1 147/30/1 157/30/1
f 5/12/1 15/11/1 144/11/1 143/12/1
f 136/30/1 140/13/1 179/13/1 175/30/1
f 107/22/1 105/12/1 164/12/1 166/22/1
f 140/13/1 133/22/1 172/22/1 179/13/1
f 186/30/38 187/13/38 197/13/38 196/30/38
f 185/8/39 184/47/39 194/47/39 195/8/39
f 188/22/40 182/12/40 192/12/40 198/22/40
f 181/10/41 180/9/41 190/9/41 191/10/41
f 180/9/42 189/20/42 199/20/42 190/9/42
f 182/12/43 183/11/43 193/11/43 192/12/43
f 189/20/44 185/8/44 195/8/44 199/20/44
f 201/10/4 200/9/4 202/20/4
f 205/22/4 203/12/4 204/11/4
f 206/13/45 207/22/45 209/22/45 208/13/45
f 217/8/4 216/47/4 215/69/4 213/32/4 212/31/4 214/30/4 218/13/4 211/22/4 210/20/4
f 146/8/37 145/47/37 184/47/37 185/8/37
f 161/9/46 163/20/46 202/20/46 200/9/46
f 147/30/35 148/13/35 187/13/35 186/30/35
f 167/13/32 168/22/32 207/22/32 206/13/32
f 159/22/47 149/22/47 188/22/47 198/22/47
f 149/22/30 143/12/30 182/12/30 188/22/30
f 170/22/48 169/13/48 208/13/48 209/22/48
f 148/13/33 158/13/33 197/13/33 187/13/33
f 141/9/46 150/20/46 189/20/46 180/9/46
f 168/22/49 170/22/49 209/22/49 207/22/49
f 157/30/50 147/30/50 186/30/50 196/30/50
f 150/20/29 146/8/29 185/8/29 189/20/29
f 169/13/50 167/13/50 206/13/50 208/13/50
f 151/9/51 152/10/51 191/10/51 190/9/51
f 172/22/52 171/20/52 210/20/52 211/22/52
f 154/11/53 153/12/53 192/12/53 193/11/53
f 174/32/54 173/31/54 212/31/54 213/32/54
f 152/10/55 142/10/55 181/10/55 191/10/55
f 155/47/56 156/8/56 195/8/56 194/47/56
f 173/31/54 175/30/54 214/30/54 212/31/54
f 144/11/49 154/11/49 193/11/49 183/11/49
f 158/13/57 157/30/57 196/30/57 197/13/57
f 177/47/54 176/69/54 215/69/54 216/47/54
f 162/10/34 161/9/34 200/9/34 201/10/34
f 153/12/58 159/22/58 198/22/58 192/12/58
f 176/69/54 174/32/54 213/32/54 215/69/54
f 163/20/5 162/10/5 201/10/5 202/20/5
f 160/20/59 151/9/59 190/9/59 199/20/59
f 224/40/60 223/39/60 238/39/60 239/40/60
f 230/70/3 229/5/3 245/5/3 246/70/3
f 237/2/61 235/68/61 252/68/61 254/2/61
f 221/3/62 222/6/62 86/6/62 90/3/62
f 234/1/61 237/2/61 254/2/61 251/1/61
f 220/5/63 219/4/63 98/4/63 97/5/63
f 228/70/64 224/40/64 239/40/64 243/70/64
f 236/33/65 225/33/65 240/33/65 253/33/65
f 235/68/61 236/33/61 253/33/61 252/68/61
f 226/7/66 227/21/66 242/21/66 241/7/66
f 233/39/61 234/1/61 251/1/61 250/39/61
f 9/5/1 1/4/1 219/4/1 220/5/1
f 24/33/1 4/7/1 226/7/1 225/33/1
f 96/2/1 94/68/1 235/68/1 237/2/1
f 11/21/1 3/3/1 221/3/1 227/21/1
f 88/70/1 87/5/1 229/5/1 230/70/1
f 1/4/1 10/70/1 228/70/1 219/4/1
f 89/21/1 88/70/1 230/70/1 231/21/1
f 20/39/1 92/39/1 233/39/1 223/39/1
f 97/5/43 98/4/43 244/4/43 245/5/43
f 239/40/38 238/39/38 250/39/38 255/40/38
f 245/5/2 244/4/2 246/70/2
f 243/70/45 239/40/45 255/40/45 246/70/45
f 247/21/2 248/3/2 249/6/2
f 255/40/2 250/39/2 251/1/2 254/2/2 252/68/2 253/33/2 256/7/2 247/21/2 246/70/2
f 240/33/39 241/7/39 256/7/39 253/33/39
f 242/21/42 90/3/42 248/3/42 247/21/42
f 98/4/40 243/70/40 246/70/40 244/4/40
f 90/3/41 86/6/41 249/6/41 248/3/41
f 241/7/44 242/21/44 247/21/44 256/7/44
f 222/6/67 232/6/67 249/6/67 86/6/67
f 231/21/68 230/70/68 246/70/68 247/21/68
f 223/39/69 233/39/69 250/39/69 238/39/69
f 225/33/70 226/7/70 241/7/70 240/33/70
f 227/21/71 221/3/71 90/3/71 242/21/71
f 232/6/5 231/21/5 247/21/5 249/6/5
f 229/5/72 220/5/72 97/5/72 245/5/72
f 219/4/73 228/70/73 243/70/73 98/4/73
